<?xml version="1.0" encoding="UTF-8" standalone="no"?>
<svg
   xmlns:dc="http://purl.org/dc/elements/1.1/"
   xmlns:cc="http://creativecommons.org/ns#"
   xmlns:rdf="http://www.w3.org/1999/02/22-rdf-syntax-ns#"
   xmlns:svg="http://www.w3.org/2000/svg"
   xmlns="http://www.w3.org/2000/svg"
   xmlns:xlink="http://www.w3.org/1999/xlink"
   xmlns:sodipodi="http://sodipodi.sourceforge.net/DTD/sodipodi-0.dtd"
   xmlns:inkscape="http://www.inkscape.org/namespaces/inkscape"
   width="736px"
   height="334px"
   viewBox="0 0 736 334"
   version="1.1"
   id="svg140"
   sodipodi:docname="Graph 1.svg"
   inkscape:version="0.92.2 5c3e80d, 2017-08-06">
  <metadata
     id="metadata144">
    <rdf:RDF>
      <cc:Work
         rdf:about="">
        <dc:format>image/svg+xml</dc:format>
        <dc:type
           rdf:resource="http://purl.org/dc/dcmitype/StillImage" />
      </cc:Work>
    </rdf:RDF>
  </metadata>
  <sodipodi:namedview
     pagecolor="#ffffff"
     bordercolor="#666666"
     borderopacity="1"
     objecttolerance="10"
     gridtolerance="10"
     guidetolerance="10"
     inkscape:pageopacity="0"
     inkscape:pageshadow="2"
     inkscape:window-width="1620"
     inkscape:window-height="909"
     id="namedview142"
     showgrid="false"
     showguides="false"
     inkscape:zoom="1.580163"
     inkscape:cx="368"
     inkscape:cy="167"
     inkscape:window-x="0"
     inkscape:window-y="0"
     inkscape:window-maximized="0"
     inkscape:current-layer="Graph-1" />
  <!-- Generator: Sketch 43.2 (39069) - http://www.bohemiancoding.com/sketch -->
  <title
     id="title97">Graph 1</title>
  <desc
     id="desc99">Created with Sketch.</desc>
  <defs
     id="defs110">
    <rect
       id="path-1"
       x="0"
       y="0"
       width="676"
       height="274"
       rx="5" />
    <filter
       x="-6.7%"
       y="-16.4%"
       width="113.3%"
       height="132.8%"
       filterUnits="objectBoundingBox"
       id="filter-3">
      <feOffset
         dx="0"
         dy="0"
         in="SourceAlpha"
         result="shadowOffsetOuter1"
         id="feOffset102" />
      <feGaussianBlur
         stdDeviation="15"
         in="shadowOffsetOuter1"
         result="shadowBlurOuter1"
         id="feGaussianBlur104" />
      <feColorMatrix
         values="0 0 0 0 0   0 0 0 0 0   0 0 0 0 0  0 0 0 0.2 0"
         type="matrix"
         in="shadowBlurOuter1"
         id="feColorMatrix106" />
    </filter>
    <path
       d="M0,15 C0,6.71572875 6.71115413,0 14.9924668,0 L76,0 L76,30 L14.9924668,30 C6.71235604,30 0,23.2860927 0,15 L0,15 Z"
       id="path-4" />
  </defs>
  <g
     id="Manufacturer-Scratch-1"
     stroke="none"
     stroke-width="1"
     fill="none"
     fill-rule="evenodd">
    <g
       id="Graph-1"
       transform="translate(30.000000, 30.000000)">
      <g
         id="Line-Copy-5-+-Line-Copy-6-+-Line-Copy-7-+-Line-Copy-8-+-Line-Copy-9-+-Stroke-3-Copy-+-Stroke-3-Copy-Mask">
        <mask
           id="mask-2"
           fill="white">
          <use
             xlink:href="#path-1"
             id="use112" />
        </mask>
        <g
           id="Mask">
          <use
             fill="black"
             fill-opacity="1"
             filter="url(#filter-3)"
             xlink:href="#path-1"
             id="use115" />
          <use
             fill="#343640"
             fill-rule="evenodd"
             xlink:href="#path-1"
             id="use117" />
        </g>
        <path
           d="M40,88.498 L57.2280296,74.998 L67.98672,46.5 L84.5388484,39 L90.3317348,39 L101.090425,63.749 L110.962995,82.498 L118.470188,94.498 L131.711228,94.498 L144.125187,77.998 L163.987299,85.498 L173.918356,117.492 L198.746273,155.995 L210.279077,155.995 L222.746555,155.995 L232.677612,146.995 L241.781586,155.995 L246.746838,177.492 L253.36791,193.493 L264.126601,177.492 L279.850543,157.495 L294.747404,125.996 L312.954249,125.996 L324.540573,140.996 L338.5,117.492 L363.437165,103.498 L379.161659,116.247 L396.54087,137.996 L408.911239,130.496 L429.644575,103.498 L456.12776,104.997 L467.714084,91.498 L490.886733,77.998 L508.227321,86.998 C508.227321,86.998 522.33517,103.498 524.818072,103.498 C527.300974,103.498 543.852551,101.998 543.852551,101.998 L557.921777,117.492 L569.508102,137.996 L589.370214,116.247 L616.680482,95.998 L637,92.998"
           id="Stroke-3-Copy"
           stroke="#009BEF"
           stroke-width="2"
           stroke-linecap="round"
           stroke-linejoin="round"
           mask="url(#mask-2)" />
        <path
           d="M40,127.849517 L57.2280296,122.301334 L67.98672,110.589324 L84.5388484,107.507 L90.3317348,127.507 L101.090425,149.678259 L110.962995,143.383658 L118.470188,140.315377 L131.711228,130.315377 L144.125187,114.534263 L163.987299,117.616588 L173.918356,130.765371 L198.746273,146.589201 L210.279077,146.589201 L222.746555,146.589201 L232.677612,142.890412 L241.781586,146.589201 L246.746838,155.423964 L253.36791,162 L264.126601,155.423964 L279.850543,147.205666 L294.747404,134.260316 L312.954249,134.260316 L324.540573,140.424964 L338.5,130.765371 L363.437165,125.014165 L379.161659,130.253705 L396.54087,139.192034 L408.911239,136.10971 L429.644575,125.014165 L456.12776,125.630219 L467.714084,120.082447 L490.886733,114.534263 L508.227321,118.233052 C508.227321,118.233052 522.33517,125.014165 524.818072,125.014165 C527.300974,125.014165 543.852551,124.397701 543.852551,124.397701 L557.921777,130.765371 L569.508102,118.192034 L589.370214,130.253705 L616.680482,121.931841 L637,120.698912"
           id="Stroke-3-Copy-2"
           stroke="#009BEF"
           stroke-width="2"
           opacity="0.300000012"
           stroke-linecap="round"
           stroke-linejoin="round"
           mask="url(#mask-2)"
           transform="translate(338.500000, 134.753500) scale(1, -1) translate(-338.500000, -134.753500) " />
      </g>
      <path
         d="M43.3027344,233.048828 C43.3027344,229.708968 43.7568314,226.899425 44.6650391,224.620117 C45.5732467,222.340809 46.8622963,220.650396 48.5322266,219.548828 C50.2021568,218.44726 52.214832,217.896484 54.5703125,217.896484 C55.6718805,217.896484 56.6796829,218.031249 57.59375,218.300781 L57.59375,219.847656 C56.738277,219.531248 55.7070373,219.373047 54.5,219.373047 C51.6054543,219.373047 49.3525471,220.416005 47.7412109,222.501953 C46.1298748,224.587901 45.2246104,227.623027 45.0253906,231.607422 L45.2539062,231.607422 C46.1445357,230.458979 47.1640568,229.5918 48.3125,229.005859 C49.4609432,228.419919 50.6738217,228.126953 51.9511719,228.126953 C54.3535276,228.126953 56.2314385,228.812493 57.5849609,230.183594 C58.9384833,231.554694 59.6152344,233.447254 59.6152344,235.861328 C59.6152344,238.486341 58.9033274,240.55761 57.4794922,242.075195 C56.0556569,243.592781 54.1367308,244.351562 51.7226562,244.351562 C49.1210807,244.351562 47.0673903,243.358408 45.5615234,241.37207 C44.0556565,239.385732 43.3027344,236.611346 43.3027344,233.048828 Z M51.7226562,242.804688 C53.6445409,242.804688 55.1386665,242.201178 56.2050781,240.994141 C57.2714897,239.787103 57.8046875,238.064464 57.8046875,235.826172 C57.8046875,233.857412 57.277349,232.322271 56.2226562,231.220703 C55.1679635,230.119135 53.732431,229.568359 51.9160156,229.568359 C50.7206971,229.568359 49.6103567,229.832029 48.5849609,230.359375 C47.5595652,230.886721 46.7421905,231.58691 46.1328125,232.459961 C45.5234345,233.333012 45.21875,234.226558 45.21875,235.140625 C45.21875,236.441413 45.5087862,237.692377 46.0888672,238.893555 C46.6689482,240.094733 47.4540966,241.046871 48.4443359,241.75 C49.4345753,242.453129 50.5273378,242.804688 51.7226562,242.804688 Z M67.4199219,244 L78.0019531,219.988281 L63.4648438,219.988281 L63.4648438,218.300781 L80.09375,218.300781 L80.09375,219.583984 L69.4765625,244 L67.4199219,244 Z"
         id="67"
         fill="#FFFFFF" />
      <g
         id="Group-2-Copy-5"
         transform="translate(489.000000, 217.000000)">
        <g
           id="g129">
          <use
             fill="#484B59"
             fill-rule="evenodd"
             xlink:href="#path-4"
             id="use125" />
          <path
             stroke="#5D6173"
             stroke-width="1"
             d="M75.5,0.5 L75.5,29.5 L14.9924668,29.5 C6.98791644,29.5 0.5,23.0093681 0.5,15 C0.5,6.99139338 6.98777405,0.5 14.9924668,0.5 L75.5,0.5 Z"
             id="path127" />
        </g>
        <path
           d="M27.5898438,20 L26.1894531,20 L26.1894531,12.6347656 L23.6699219,12.6347656 L23.6699219,11.4335938 L30.109375,11.4335938 L30.109375,12.6347656 L27.5898438,12.6347656 L27.5898438,20 Z M34.421875,20 L34.421875,11.4335938 L35.8222656,11.4335938 L35.8222656,20 L34.421875,20 Z M44.7871094,20 L42.3027344,12.8457031 L42.2558594,12.8457031 C42.322266,13.9082084 42.3554688,14.9042922 42.3554688,15.8339844 L42.3554688,20 L41.0839844,20 L41.0839844,11.4335938 L43.0585938,11.4335938 L45.4375,18.2480469 L45.4726562,18.2480469 L47.921875,11.4335938 L49.9023438,11.4335938 L49.9023438,20 L48.5546875,20 L48.5546875,15.7636719 C48.5546875,15.3378885 48.5654296,14.7832065 48.5869141,14.0996094 C48.6083985,13.4160122 48.626953,13.0019538 48.6425781,12.8574219 L48.5957031,12.8574219 L46.0234375,20 L44.7871094,20 Z M60.0039062,20 L55.1582031,20 L55.1582031,11.4335938 L60.0039062,11.4335938 L60.0039062,12.6171875 L56.5585938,12.6171875 L56.5585938,14.9492188 L59.7871094,14.9492188 L59.7871094,16.1210938 L56.5585938,16.1210938 L56.5585938,18.8105469 L60.0039062,18.8105469 L60.0039062,20 Z"
           id="Start-Manufacture"
           fill="#FFFFFF" />
      </g>
      <g
         id="Group-2-Copy-6"
         transform="translate(567.000000, 217.000000)">
        <path
           d="M0.5,0.5 L56.0078091,0.5 C64.012205,0.5 70.5,6.99062985 70.5,15 C70.5,23.0084507 64.0120549,29.5 56.0078091,29.5 L0.5,29.5 L0.5,0.5 Z"
           id="path133"
           stroke="#5D6173" />
        <path
           d="M25.2363281,15.7050781 C25.2363281,16.7441458 25.0380879,17.6191371 24.6416016,18.3300781 C24.2451152,19.0410192 23.6679725,19.5410142 22.9101562,19.8300781 L24.9609375,22.0390625 L23.0742188,22.0390625 L21.4570312,20.1171875 L21.2285156,20.1171875 C19.9355404,20.1171875 18.9423863,19.7334023 18.2490234,18.9658203 C17.5556606,18.1982383 17.2089844,17.1074289 17.2089844,15.6933594 C17.2089844,14.2792898 17.5576137,13.1933632 18.2548828,12.4355469 C18.9521519,11.6777306 19.9472592,11.2988281 21.2402344,11.2988281 C22.5136782,11.2988281 23.4980434,11.6835899 24.1933594,12.453125 C24.8886754,13.2226601 25.2363281,14.3066336 25.2363281,15.7050781 Z M18.6972656,15.7050781 C18.6972656,16.7597709 18.9101541,17.5595676 19.3359375,18.1044922 C19.7617209,18.6494168 20.3925739,18.921875 21.2285156,18.921875 C22.060551,18.921875 22.6884744,18.6523464 23.1123047,18.1132812 C23.5361349,17.5742161 23.7480469,16.7714897 23.7480469,15.7050781 C23.7480469,14.6542916 23.538088,13.8574246 23.1181641,13.3144531 C22.6982401,12.7714817 22.0722698,12.5 21.2402344,12.5 C20.4003864,12.5 19.7666037,12.7714817 19.3388672,13.3144531 C18.9111307,13.8574246 18.6972656,14.6542916 18.6972656,15.7050781 Z M32.6777344,20 L31.2773438,20 L31.2773438,12.6347656 L28.7578125,12.6347656 L28.7578125,11.4335938 L35.1972656,11.4335938 L35.1972656,12.6347656 L32.6777344,12.6347656 L32.6777344,20 Z M41.9296875,15.3417969 L43.9570312,11.4335938 L45.4804688,11.4335938 L42.6269531,16.6777344 L42.6269531,20 L41.2207031,20 L41.2207031,16.7246094 L38.3789062,11.4335938 L39.9023438,11.4335938 L41.9296875,15.3417969 Z"
           id="path135"
           fill="#FFFFFF"
           opacity="0.5" />
      </g>
    </g>
  </g>
</svg>
